<svg height="512" viewBox="0 0 74 74" width="512" xmlns="http://www.w3.org/2000/svg"><g id="line_icons" data-name="line icons"><path d="m67.519 35.189h-9.6a1 1 0 0 1 0-2h9.6a2.484 2.484 0 0 0 2.481-2.481v-18.264a2.485 2.485 0 0 0 -2.481-2.482h-61.038a2.485 2.485 0 0 0 -2.481 2.482v18.264a2.484 2.484 0 0 0 2.481 2.481h11.351a1 1 0 0 1 0 2h-11.351a4.487 4.487 0 0 1 -4.481-4.481v-18.264a4.487 4.487 0 0 1 4.481-4.482h61.038a4.487 4.487 0 0 1 4.481 4.482v18.264a4.487 4.487 0 0 1 -4.481 4.481z"/><path d="m62.772 26.612h-4.848a1 1 0 0 1 0-2h3.848v-5.265h-49.544v5.265h5.6a1 1 0 0 1 0 2h-6.6a1 1 0 0 1 -1-1v-7.265a1 1 0 0 1 1-1h51.544a1 1 0 0 1 1 1v7.265a1 1 0 0 1 -1 1z"/><path d="m54.307 66.038h-32.858a4.622 4.622 0 0 1 -4.617-4.617v-43.074a1 1 0 0 1 1-1h40.092a1 1 0 0 1 1 1v43.074a4.622 4.622 0 0 1 -4.617 4.617zm-35.475-46.691v42.074a2.62 2.62 0 0 0 2.617 2.617h32.858a2.62 2.62 0 0 0 2.617-2.617v-42.074z"/><path d="m45.378 59.924h-15a1 1 0 0 1 -1-1 5.439 5.439 0 0 0 -5.434-5.432 1 1 0 0 1 -1-1v-34.145a1 1 0 0 1 1-1h27.867a1 1 0 0 1 1 1v34.145a1 1 0 0 1 -1 1 5.439 5.439 0 0 0 -5.433 5.432 1 1 0 0 1 -1 1zm-14.066-2h13.133a7.447 7.447 0 0 1 6.366-6.365v-32.212h-25.866v32.212a7.449 7.449 0 0 1 6.367 6.365z"/><path d="m37.878 43.489a10.036 10.036 0 1 1 10.036-10.035 10.047 10.047 0 0 1 -10.036 10.035zm0-18.072a8.036 8.036 0 1 0 8.036 8.037 8.045 8.045 0 0 0 -8.036-8.037z"/><path d="m32.231 32.923h.817a4.55 4.55 0 0 1 .687-2.388l1.046.374a4.159 4.159 0 0 0 -.671 2.248c0 1.108.64 1.857 1.529 1.857.858 0 1.389-.609 1.857-1.764.624-1.591 1.342-2.574 2.7-2.574a2.56 2.56 0 0 1 2.513 2.356h.817v.968h-.755a4.157 4.157 0 0 1 -.547 2.03l-1.024-.392a3.771 3.771 0 0 0 .53-1.966c0-1.2-.718-1.654-1.342-1.654-.811 0-1.217.577-1.779 1.935-.655 1.607-1.467 2.419-2.856 2.419a2.715 2.715 0 0 1 -2.653-2.466h-.864z"/><path d="m35.748 36.5a2.832 2.832 0 0 1 -2.758-2.466h-.76a.125.125 0 0 1 -.125-.125v-.983a.125.125 0 0 1 .125-.125h.7a4.605 4.605 0 0 1 .706-2.336.124.124 0 0 1 .143-.045l1.046.375a.126.126 0 0 1 .077.079.129.129 0 0 1 -.014.108 4.024 4.024 0 0 0 -.651 2.178c0 1.019.578 1.732 1.405 1.732.752 0 1.257-.489 1.741-1.686.54-1.377 1.256-2.652 2.815-2.652a2.665 2.665 0 0 1 2.618 2.356h.712a.124.124 0 0 1 .125.125v.965a.124.124 0 0 1 -.125.125h-.634a4.249 4.249 0 0 1 -.559 1.968.123.123 0 0 1 -.151.053l-1.031-.39a.123.123 0 0 1 -.073-.075.119.119 0 0 1 .009-.1 3.636 3.636 0 0 0 .514-1.9c0-1.129-.656-1.529-1.217-1.529-.686 0-1.074.434-1.663 1.857-.717 1.741-1.606 2.491-2.975 2.491zm-3.393-2.716h.74a.125.125 0 0 1 .123.1 2.6 2.6 0 0 0 2.53 2.362c1.268 0 2.062-.679 2.741-2.342.564-1.363.991-2.012 1.894-2.012.73 0 1.467.55 1.467 1.779a3.858 3.858 0 0 1 -.476 1.9l.795.3a4.116 4.116 0 0 0 .477-1.879.124.124 0 0 1 .125-.121h.629v-.717h-.691a.124.124 0 0 1 -.123-.1 2.447 2.447 0 0 0 -2.386-2.254c-1.332 0-1.995 1-2.583 2.494-.523 1.293-1.113 1.844-1.973 1.844a1.76 1.76 0 0 1 -1.655-1.982 4.3 4.3 0 0 1 .607-2.182l-.808-.289a4.58 4.58 0 0 0 -.61 2.239.125.125 0 0 1 -.125.123h-.693z"/><path d="m37.878 54.03a3.6 3.6 0 1 1 3.6-3.6 3.6 3.6 0 0 1 -3.6 3.6zm0-5.2a1.6 1.6 0 1 0 1.6 1.6 1.6 1.6 0 0 0 -1.6-1.597z"/></g></svg>